<?xml version="1.0" encoding="iso-8859-1"?>
<!-- Generator: Adobe Illustrator 18.1.1, SVG Export Plug-In . SVG Version: 6.00 Build 0)  -->
<svg version="1.1" id="Capa_1" xmlns="http://www.w3.org/2000/svg" xmlns:xlink="http://www.w3.org/1999/xlink" x="0px" y="0px"
	 viewBox="0 0 26 26" style="enable-background:new 0 0 26 26;" xml:space="preserve">
<g>
	<path style="fill:#030104;" d="M21.125,2C22.71,2,24,3.29,24,4.875v16.25C24,22.71,22.71,24,21.125,24H4.875
		C3.29,24,2,22.71,2,21.125V4.875C2,3.29,3.29,2,4.875,2H21.125 M21.125,0H4.875C2.182,0,0,2.182,0,4.875v16.25
		C0,23.818,2.182,26,4.875,26h16.25C23.818,26,26,23.818,26,21.125V4.875C26,2.182,23.818,0,21.125,0L21.125,0z"/>
	<path style="fill:#030104;" d="M13.301,6.85c-2.798,0-4.535,2.428-4.535,6.337c0.02,3.863,1.702,6.263,4.392,6.263
		c2.882,0,4.535-2.329,4.535-6.39C17.692,9.171,16.051,6.85,13.301,6.85z M13.229,17.257c-1.084,0-1.73-1.529-1.73-4.09
		c0-2.544,0.67-4.125,1.749-4.125c1.415,0,1.712,2.214,1.712,4.071C14.959,14.661,14.734,17.257,13.229,17.257z"/>
</g>
<g>
</g>
<g>
</g>
<g>
</g>
<g>
</g>
<g>
</g>
<g>
</g>
<g>
</g>
<g>
</g>
<g>
</g>
<g>
</g>
<g>
</g>
<g>
</g>
<g>
</g>
<g>
</g>
<g>
</g>
</svg>
